# AST/ASF file generated using VICON BodyLanguage
# -----------------------------------------------
:version 1.10
:name VICON
:units
  mass 1.0
  length 0.45
  angle deg
:documentation
   .ast/.asf automatically generated from VICON data using
   VICON BodyBuilder and BodyLanguage model FoxedUp or BRILLIANT.MOD
:root
   order TX TY TZ RX RY RZ
   axis XYZ
   position 0 0 0  
   orientation 0 0 0 
:bonedata
  begin
     id 1 
     name lhipjoint
     direction 0.589753 -0.68606 0.426044 
     length 2.54082 
     axis 0 0 0  XYZ
  end
  begin
     id 2 
     name lfemur
     direction 0.34202 -0.939693 0  
     length 7.04539  
     axis 0 0 20  XYZ
    dof rx ry rz
    limits (-160.0 20.0)
           (-70.0 70.0)
           (-60.0 70.0)
  end
  begin
     id 3 
     name ltibia
     direction 0.34202 -0.939693 0   
     length 7.83772   
     axis 0 0 20   XYZ
    dof rx
    limits (-10.0 170.0)
  end
  begin
     id 4 
     name lfoot
     direction 0.0596604 -0.163915 0.984669   
     length 2.39542   
     axis -90 7.62852e-016 20   XYZ
    dof rx rz
    limits (-45.0 90.0)
           (-70.0 20.0)
  end
  begin
     id 5 
     name ltoes
     direction 1.53514e-011 -4.21954e-011 1   
     length 1.2047   
     axis -90 7.62852e-016 20   XYZ
    dof rx
    limits (-90.0 20.0)
  end
  begin
     id 6 
     name rhipjoint
     direction -0.580585 -0.69168 0.429534   
     length 2.52018  
     axis 0 0 0  XYZ 
  end
  begin
     id 7 
     name rfemur
     direction -0.34202 -0.939693 0   
     length 7.0101   
     axis 0 0 -20   XYZ
    dof rx ry rz
    limits (-160.0 20.0)
           (-70.0 70.0)
           (-70.0 60.0)
  end
  begin
     id 8 
     name rtibia
     direction -0.34202 -0.939693 0   
     length 7.70628   
     axis 0 0 -20   XYZ
    dof rx
    limits (-10.0 170.0)
 end
 begin
     id 9 
     name rfoot
     direction -0.0696237 -0.19129 0.979061   
     length 2.52466  
     axis -90 -7.62852e-016 -20   XYZ
    dof rx rz
    limits (-45.0 90.0)
           (-20.0 70.0)
  end
  begin
     id 10 
     name rtoes
     direction -1.53519e-011 -4.21793e-011 1   
     length 1.266   
     axis -90 -7.62852e-016 -20   XYZ
    dof rx
    limits (-90.0 20.0)
  end
  begin
     id 11 
     name lowerback
     direction 0.00381965 0.995707 -0.0924856   
     length 2.20825   
     axis 0 0 0   XYZ
    dof rx ry rz
    limits (-20.0 45.0)
           (-30.0 30.0)
           (-30.0 30.0)
  end
  begin
     id 12 
     name upperback
     direction -0.0139043 0.999634 -0.0231929   
     length 2.21517   
     axis 0 0 0   XYZ
    dof rx ry rz
    limits (-20.0 45.0)
           (-30.0 30.0)
           (-30.0 30.0)
  end
  begin
     id 13 
     name thorax
     direction -0.0143933 0.999691 0.0202892   
     length 2.22911   
     axis 0 0 0   XYZ
    dof rx ry rz
    limits (-20.0 45.0)
           (-30.0 30.0)
           (-30.0 30.0)
  end
  begin
     id 14 
     name lowerneck
     direction -0.0251153 0.981819 0.188153   
     length 1.61782   
     axis 0 0 0   XYZ
    dof rx ry rz
    limits (-20.0 45.0)
           (-30.0 30.0)
           (-30.0 30.0)
  end
  begin
     id 15 
     name upperneck
     direction 0.0563891 0.969357 -0.239095   
     length 1.64526   
     axis 0 0 0   XYZ
    dof rx ry rz
    limits (-20.0 45.0)
           (-30.0 30.0)
           (-30.0 30.0)
  end
  begin
     id 16
     name head
     direction 0.0208328 0.99459 -0.101773  
     length 1.67436  
     axis 0 0 0   XYZ
    dof rx ry rz
    limits (-20.0 45.0)
           (-30.0 30.0)
           (-30.0 30.0)
  end
  begin
     id 17 
     name lclavicle
     direction 0.917689 0.397224 0.00772059  
     length 3.31102  
     axis 0 0 0   XYZ
    dof ry rz
    limits (-20.0 10.0)
           (0.0 20.0)
  end
  begin
     id 18 
     name lhumerus
     direction 1 -4.4896e-011 2.32308e-027   
     length 5.25537   
     axis 180 -30 -90   XYZ
    dof rx ry rz
    limits (-60.0 90.0)
           (-90.0 90.0)
           (-90.0 90.0)
  end
  begin
     id 19
     name lradius
     direction 1 -4.49005e-011 -2.04271e-027   
     length 3.38855   
     axis 180 -30 -90   XYZ
    dof rx
    limits (-10.0 170.0)
  end
  begin
     id 20
     name lwrist
     direction 1 -4.48892e-011 2.56952e-028   
     length 1.69428   
     axis -5.12785e-016 90 90   XYZ
    dof ry
    limits (-180.0 0.0)
 end
  begin
     id 21 
     name lhand
     direction 1 -4.48966e-011 5.13905e-028   
     length 0.614516   
     axis -3.27915e-016 90 90   XYZ
    dof rx rz
    limits (-90.0 90.0)
           (-45.0 45.0)
  end
  begin
     id 22 
     name lfingers
     direction 1 -4.48979e-011 1.02781e-027   
     length 0.495439   
     axis -6.5583e-016 90 90   XYZ
    dof rx
    limits (0.0 90.0)
  end
  begin
     id 23
     name lthumb
     direction 0.707107 -6.35001e-011 0.707107   
     length 0.711354   
     axis -90 45 2.85299e-015   XYZ
    dof rx rz
    limits (-45.0 45.0)
           (-45.0 45.0)
  end
  begin
     id 24 
     name rclavicle
     direction -0.938556 0.342765 -0.0403177   
     length 3.27019  
     axis 0 0 0   XYZ 
    dof ry rz
    limits (-10.0 20.0)
           (-20.0 0.0)
  end
  begin
     id 25 
     name rhumerus
     direction -1 -4.48966e-011 2.52291e-027  
     length 5.38183   
     axis 180 30 90   XYZ
    dof rx ry rz
    limits (-90.0 60.0)
           (-90.0 90.0)
           (-90.0 90.0)
  end
  begin
     id 26 
     name rradius
     direction -1 -4.4896e-011 1.5797e-027   
     length 3.16988   
     axis 180 30 90   XYZ
    dof rx
    limits (-10.0 170.0)
  end
  begin
     id 27 
     name rwrist
     direction -1 -4.48947e-011 2.56952e-028   
     length 1.58494   
     axis -5.12785e-016 -90 -90   XYZ
    dof ry
    limits (-180.0 0.0)
  end
  begin
     id 28
     name rhand
     direction -1 -4.49098e-011 5.13905e-028   
     length 0.637679   
     axis -3.27915e-016 -90 -90   XYZ
    dof rx rz
    limits (-90.0 90.0)
           (-45.0 45.0)
  end
  begin
     id 29
     name rfingers
     direction -1 -4.49026e-011 1.02781e-027   
     length 0.514113   
     axis -6.5583e-016 -90 -90   XYZ
    dof rx
    limits (0.0 90.0)
  end
  begin
     id 30
     name rthumb
     direction -0.707107 -6.3491e-011 0.707107   
     length 0.738167   
     axis -90 -45 -2.85299e-015   XYZ
    dof rx rz
    limits (-45.0 45.0)
           (-45.0 45.0)
  end
:hierarchy
  begin
    root lhipjoint rhipjoint lowerback
    lhipjoint lfemur
    lfemur ltibia
    ltibia lfoot
    lfoot ltoes
    rhipjoint rfemur
    rfemur rtibia
    rtibia rfoot
    rfoot rtoes
    lowerback upperback
    upperback thorax
    thorax lowerneck lclavicle rclavicle
    lowerneck upperneck
    upperneck head
    lclavicle lhumerus
    lhumerus lradius
    lradius lwrist
    lwrist lhand lthumb
    lhand lfingers
    rclavicle rhumerus
    rhumerus rradius
    rradius rwrist
    rwrist rhand rthumb
    rhand rfingers
  end

#!OML:ASF H:\Swim\Project 1\Capture day 1\Session 1\swimmer.ASF
:FULLY-SPECIFIED
:DEGREES
666
root 5.67452 10.9534 13.478 57.4999 1.10813 5.02698
lowerback -0.793276 -0.511346 -0.047844
upperback -1.07786 -0.696141 -2.55739
thorax -0.690741 -0.359208 -2.5966
lowerneck -27.8177 -6.61361 -7.43481
upperneck 28.0796 -9.41628 9.33805
head 15.3743 -3.3967 3.1622
rclavicle 6.65929e-015 2.98177e-015
rhumerus -37.7113 31.342 -92.8776
rradius 56.5352
rwrist 37.8395
rhand -51.8814 74.8312
rfingers 7.12502
rthumb -24.3938 46.364
lclavicle 6.65929e-015 2.98177e-015
lhumerus -39.9674 -25.2914 90.3682
lradius 55.7699
lwrist -50.3934
lhand -68.5015 31.139
lfingers 7.12502
lthumb -40.2011 56.3041
rfemur -8.77665 13.4848 20.1981
rtibia 33.8889
rfoot -23.1731 -4.61534
rtoes -11.0398
lfemur -12.8093 -6.90254 -17.0066
ltibia 34.5975
lfoot -7.63929 -16.8505
ltoes 10.5362
667
root 5.67519 10.9316 13.4873 57.7751 1.09771 5.02023
lowerback -0.74338 -0.51134 -0.0281155
upperback -1.13708 -0.698294 -2.54358
thorax -0.779573 -0.361273 -2.59272
lowerneck -27.8511 -6.60646 -7.43941
upperneck 27.9514 -9.39878 9.36611
head 15.323 -3.38725 3.17448
rclavicle 0 1.98785e-015
rhumerus -38.19 31.1098 -92.9185
rradius 57.1327
rwrist 38.0736
rhand -51.8786 74.8985
rfingers 7.12502
rthumb -24.3912 46.4309
lclavicle 0 1.98785e-015
lhumerus -40.4245 -25.1284 90.4414
lradius 56.2755
lwrist -50.5186
lhand -68.6167 32.3642
lfingers 7.12502
lthumb -40.3095 57.4962
rfemur -8.94316 13.695 20.1604
rtibia 33.8571
rfoot -23.4495 -4.6085
rtoes -10.9558
lfemur -12.9673 -7.05886 -17.001
ltibia 34.5444
lfoot -7.95744 -16.7557
ltoes 10.4477
668
root 5.67592 10.9102 13.4971 58.073 1.09017 5.02037
lowerback -0.721665 -0.515056 -0.0099265
upperback -1.19571 -0.704946 -2.52904
thorax -0.852181 -0.365503 -2.58751
lowerneck -27.8922 -6.59694 -7.43796
upperneck 27.8231 -9.37779 9.38777
head 15.2721 -3.37638 3.18368
rclavicle 8.64713e-015 1.39149e-015
rhumerus -38.6532 30.9125 -92.9578
rradius 57.7065
rwrist 38.2736
rhand -51.8827 75.0073
rfingers 7.12502
rthumb -24.395 46.5403
lclavicle 8.64713e-015 1.39149e-015
lhumerus -40.8656 -24.9743 90.5028
lradius 56.7727
lwrist -50.6921
lhand -68.6928 33.551
lfingers 7.12502
lthumb -40.381 58.661
rfemur -9.13327 13.8944 20.1186
rtibia 33.8247
rfoot -23.7286 -4.62377
rtoes -10.9021
lfemur -13.1508 -7.21411 -16.9937
ltibia 34.4905
lfoot -8.26694 -16.6558
ltoes 10.3492
669
root 5.67669 10.8891 13.507 58.3814 1.08231 5.02448
lowerback -0.713465 -0.51918 0.0065669
upperback -1.25181 -0.711864 -2.51616
thorax -0.914638 -0.369797 -2.58318
lowerneck -27.9405 -6.58868 -7.43277
upperneck 27.6972 -9.35875 9.40568
head 15.2237 -3.36617 3.19021
rclavicle 1.28216e-014 1.39149e-015
rhumerus -39.1022 30.7365 -92.9951
rradius 58.2618
rwrist 38.4434
rhand -51.8927 75.1293
rfingers 7.12502
rthumb -24.4046 46.6636
lclavicle 1.28216e-014 1.39149e-015
lhumerus -41.2937 -24.8451 90.5579
lradius 57.2524
lwrist -50.9096
lhand -68.7758 35.2026
lfingers 7.12502
lthumb -40.4591 60.2885
rfemur -9.33518 14.0823 20.0747
rtibia 33.7946
rfoot -24.0117 -4.66619
rtoes -10.8978
lfemur -13.346 -7.36468 -16.9878
ltibia 34.4361
lfoot -8.56717 -16.5476
ltoes 10.2348
670
root 5.67745 10.8682 13.5167 58.6918 1.06712 5.0351
lowerback -0.706321 -0.523365 0.0110344
upperback -1.30664 -0.718797 -2.50532
thorax -0.97509 -0.373979 -2.57421
lowerneck -27.9969 -6.58262 -7.42264
upperneck 27.5846 -9.3435 9.41659
head 15.1828 -3.35751 3.19241
rclavicle -2.48481e-015 8.05078e-015
rhumerus -39.5431 30.5706 -93.0274
rradius 58.8106
rwrist 38.5898
rhand -51.8999 75.2629
rfingers 7.12502
rthumb -24.4115 46.7981
lclavicle -2.48481e-015 8.05078e-015
lhumerus -41.7181 -24.7432 90.6198
lradius 57.7159
lwrist -51.134
lhand -68.8795 37.4076
lfingers 7.12502
lthumb -40.5566 62.4633
rfemur -9.53967 14.2646 20.0242
rtibia 33.7706
rfoot -24.3059 -4.73548
rtoes -10.9108
lfemur -13.544 -7.50613 -16.9922
ltibia 34.3821
lfoot -8.85661 -16.4318
ltoes 10.1133
671
root 5.67803 10.8472 13.5262 58.9958 1.04079 5.04844
lowerback -0.695946 -0.524884 -0.00154331
upperback -1.35879 -0.722133 -2.49654
thorax -1.03425 -0.376162 -2.55776
lowerneck -28.0588 -6.5831 -7.41448
upperneck 27.4857 -9.33825 9.42857
head 15.1507 -3.35266 3.19355
rclavicle 1.21259e-014 1.36167e-014
rhumerus -39.9817 30.3963 -93.0546
rradius 59.3617
rwrist 38.7377
rhand -51.9074 75.3701
rfingers 7.12502
rthumb -24.4187 46.9063
lclavicle 1.21259e-014 1.36167e-014
lhumerus -42.1373 -24.6649 90.6853
lradius 58.165
lwrist -51.3801
lhand -68.9987 40.23
lfingers 7.12502
lthumb -40.6686 65.2508
rfemur -9.73706 14.4451 19.9689
rtibia 33.7541
rfoot -24.608 -4.83368
rtoes -10.9369
lfemur -13.7355 -7.63411 -17.0098
ltibia 34.3313
lfoot -9.14107 -16.3076
ltoes 9.97038
672
root 5.67854 10.826 13.5353 59.2813 1.00133 5.0634
lowerback -0.665443 -0.522095 -0.0316681
upperback -1.40767 -0.719927 -2.48973
thorax -1.10091 -0.37538 -2.5333
lowerneck -28.1272 -6.59199 -7.41674
upperneck 27.4031 -9.34465 9.44891
head 15.1301 -3.35209 3.19785
rclavicle 2.06736e-014 2.3556e-014
rhumerus -40.4242 30.2023 -93.0755
rradius 59.925
rwrist 38.8785
rhand -51.8997 75.4596
rfingers 7.12502
rthumb -24.4113 46.9948
lclavicle 2.06736e-014 2.3556e-014
lhumerus -42.5546 -24.605 90.7596
lradius 58.6064
lwrist -51.6236
lhand -69.1215 43.4295
lfingers 7.12502
lthumb -40.784 68.4142
rfemur -9.91392 14.6288 19.9107
rtibia 33.7441
rfoot -24.9195 -4.96481
rtoes -10.9959
lfemur -13.9089 -7.74953 -17.0442
ltibia 34.2868
lfoot -9.42456 -16.1759
ltoes 9.81413
673
root 5.67938 10.8044 13.544 59.549 0.96086 5.06852
lowerback -0.615607 -0.514492 -0.0599868
upperback -1.45603 -0.711539 -2.47913
thorax -1.1776 -0.371502 -2.50583
lowerneck -28.1956 -6.60646 -7.42742
upperneck 27.3325 -9.35756 9.47235
head 15.1163 -3.35447 3.20379
rclavicle -1.78906e-015 1.78906e-015
rhumerus -40.8787 29.9863 -93.0884
rradius 60.5062
rwrist 39.0277
rhand -51.8815 75.5416
rfingers 7.12502
rthumb -24.3939 47.0744
lclavicle -1.78906e-015 1.78906e-015
lhumerus -42.9713 -24.5448 90.8403
lradius 59.0443
lwrist -51.864
lhand -69.2295 46.4649
lfingers 7.12502
lthumb -40.8855 71.4175
rfemur -10.0711 14.7931 19.8615
rtibia 33.7369
rfoot -25.2222 -5.10786
rtoes -11.0962
lfemur -14.066 -7.85995 -17.0804
ltibia 34.2516
lfoot -9.71372 -16.0315
ltoes 9.66186
674
root 5.6804 10.783 13.5525 59.8097 0.932141 5.06534
lowerback -0.553785 -0.506155 -0.0794643
upperback -1.50496 -0.702288 -2.45997
thorax -1.26157 -0.36724 -2.47443
lowerneck -28.2692 -6.62444 -7.44391
upperneck 27.269 -9.37261 9.49396
head 15.1072 -3.35834 3.20963
rclavicle 9.93923e-016 -2.57426e-014
rhumerus -41.3395 29.7536 -93.0918
rradius 61.102
rwrist 39.178
rhand -51.8525 75.6158
rfingers 7.12502
rthumb -24.3661 47.1449
lclavicle 9.93923e-016 -2.57426e-014
lhumerus -43.3814 -24.4706 90.9261
lradius 59.49
lwrist -52.0483
lhand -69.3121 48.5406
lfingers 7.12502
lthumb -40.963 73.4688
rfemur -10.218 14.9457 19.8324
rtibia 33.7294
rfoot -25.5193 -5.27703
rtoes -11.2313
lfemur -14.2222 -7.9647 -17.1034
ltibia 34.2259
lfoot -10.0065 -15.8839
ltoes 9.4971
